<svg width="28" height="28" viewBox="0 0 28 28" fill="none" xmlns="http://www.w3.org/2000/svg">
<g clip-path="url(#clip0_4_709)">
<path d="M10.675 20.265L11.5383 16.8467" stroke="#6C7CFF" stroke-width="1.5" stroke-linecap="round" stroke-linejoin="round"/>
<path d="M16.4617 16.8467L17.3133 20.2767" stroke="#6C7CFF" stroke-width="1.5" stroke-linecap="round" stroke-linejoin="round"/>
<path d="M8.79667 5.86834C9.11947 4.84554 9.75909 3.95186 10.6231 3.31642C11.4871 2.68099 12.5308 2.33671 13.6033 2.33334H14.3967C15.4692 2.33671 16.5129 2.68099 17.3769 3.31642C18.2409 3.95186 18.8805 4.84554 19.2033 5.86834" stroke="#6C7CFF" stroke-width="1.5" stroke-linecap="round" stroke-linejoin="round"/>
<path d="M19.0283 12.81V12.845C18.9305 14.1116 18.3583 15.2946 17.4261 16.1576C16.4939 17.0206 15.2704 17.5 14 17.5C12.7296 17.5 11.5061 17.0206 10.5739 16.1576C9.64166 15.2946 9.06947 14.1116 8.97166 12.845V12.81" stroke="#6C7CFF" stroke-width="1.5" stroke-linecap="round" stroke-linejoin="round"/>
<path d="M18.8276 12.8333H9.17242C8.60735 12.8378 8.06312 12.6203 7.65684 12.2275C7.25055 11.8348 7.01469 11.2982 7 10.7333V7.93333C7.01469 7.36845 7.25055 6.8319 7.65684 6.43916C8.06312 6.04642 8.60735 5.82887 9.17242 5.83333H18.8934C19.4482 5.8424 19.9777 6.06636 20.3707 6.45806C20.7636 6.84975 20.9892 7.37863 21 7.93333V10.797C20.9716 11.3515 20.7295 11.8735 20.3244 12.2532C19.9193 12.6329 19.3828 12.8409 18.8276 12.8333Z" stroke="#6C7CFF" stroke-width="1.5" stroke-linecap="round" stroke-linejoin="round"/>
<path d="M11.6667 8.75H16.3333" stroke="#6C7CFF" stroke-width="1.5" stroke-linecap="round" stroke-linejoin="round"/>
<path d="M3.5 24.5V24.052C3.49995 23.2428 3.78031 22.4585 4.29336 21.8327C4.80642 21.2069 5.52047 20.7783 6.314 20.6197L10.0625 19.8695L10.4265 20.1122C11.4846 20.8179 12.7281 21.1946 14 21.1946C15.2719 21.1946 16.5154 20.8179 17.5735 20.1122L17.9375 19.8695L21.686 20.6197C22.4795 20.7783 23.1936 21.2069 23.7066 21.8327C24.2197 22.4585 24.5001 23.2428 24.5 24.052V24.5" stroke="#6C7CFF" stroke-width="1.5" stroke-linecap="round" stroke-linejoin="round"/>
</g>
<defs>
<clipPath id="clip0_4_709">
<rect width="28" height="28" fill="white"/>
</clipPath>
</defs>
</svg>
