<svg width="29" height="28" viewBox="0 0 29 28" fill="none" xmlns="http://www.w3.org/2000/svg">
<g clip-path="url(#clip0_4_739)">
<path d="M26.1667 10.5001H25.5834" stroke="#FFF629" stroke-width="1.5" stroke-linecap="round" stroke-linejoin="round"/>
<path d="M26.1667 14.0001H25.5834" stroke="#FFF629" stroke-width="1.5" stroke-linecap="round" stroke-linejoin="round"/>
<path d="M26.1667 17.5001H25.5834" stroke="#FFF629" stroke-width="1.5" stroke-linecap="round" stroke-linejoin="round"/>
<path d="M18.1296 5.83334H10.8704C8.36463 5.83334 6.33333 7.86465 6.33333 10.3704V17.6296C6.33333 20.1354 8.36463 22.1667 10.8704 22.1667H18.1296C20.6354 22.1667 22.6667 20.1354 22.6667 17.6296V10.3704C22.6667 7.86465 20.6354 5.83334 18.1296 5.83334Z" stroke="#FFF629" stroke-width="1.5" stroke-linecap="round" stroke-linejoin="round"/>
<path d="M3.41674 10.5L2.8334 10.5" stroke="#FFF629" stroke-width="1.5" stroke-linecap="round" stroke-linejoin="round"/>
<path d="M3.41674 14L2.8334 14" stroke="#FFF629" stroke-width="1.5" stroke-linecap="round" stroke-linejoin="round"/>
<path d="M3.41674 17.5L2.8334 17.5" stroke="#FFF629" stroke-width="1.5" stroke-linecap="round" stroke-linejoin="round"/>
<path d="M11.0001 2.33337V2.91671" stroke="#FFF629" stroke-width="1.5" stroke-linecap="round" stroke-linejoin="round"/>
<path d="M14.5001 2.33337V2.9167" stroke="#FFF629" stroke-width="1.5" stroke-linecap="round" stroke-linejoin="round"/>
<path d="M18.0001 2.33337V2.91671" stroke="#FFF629" stroke-width="1.5" stroke-linecap="round" stroke-linejoin="round"/>
<path d="M11.0001 25.0834V25.6667" stroke="#FFF629" stroke-width="1.5" stroke-linecap="round" stroke-linejoin="round"/>
<path d="M14.5001 25.0834V25.6667" stroke="#FFF629" stroke-width="1.5" stroke-linecap="round" stroke-linejoin="round"/>
<path d="M18.0001 25.0834V25.6667" stroke="#FFF629" stroke-width="1.5" stroke-linecap="round" stroke-linejoin="round"/>
<path d="M10.7646 15.575H14.8098" stroke="#FFF629" stroke-width="1.5" stroke-linecap="round" stroke-linejoin="round"/>
<path d="M15.1568 16.625L13.4558 11.375H12.1328L10.4318 16.625" stroke="#FFF629" stroke-width="1.5" stroke-linecap="round" stroke-linejoin="round"/>
<path d="M18.0438 16.625V11.375" stroke="#FFF629" stroke-width="1.5" stroke-linecap="round" stroke-linejoin="round"/>
</g>
<defs>
<clipPath id="clip0_4_739">
<rect width="28" height="28" fill="white" transform="translate(0.5)"/>
</clipPath>
</defs>
</svg>
