<svg width="29" height="28" viewBox="0 0 29 28" fill="none" xmlns="http://www.w3.org/2000/svg">
<g clip-path="url(#clip0_4_692)">
<path d="M25 13.9995C25 11.7338 20.2995 9.89746 14.5 9.89746H13.3334" stroke="#CA59FF" stroke-width="1.32857" stroke-linecap="round" stroke-linejoin="round"/>
<path d="M14.0973 16.5266L15.6723 18.1016L14.0973 19.6766" stroke="#CA59FF" stroke-width="1.32857" stroke-linecap="round" stroke-linejoin="round"/>
<path d="M14.5006 24.4998C20.2996 24.4998 25.0006 19.7988 25.0006 13.9998C25.0006 8.20086 20.2996 3.49985 14.5006 3.49985C8.70162 3.49985 4.00061 8.20086 4.00061 13.9998C4.00061 19.7988 8.70162 24.4998 14.5006 24.4998Z" stroke="#CA59FF" stroke-width="1.32857" stroke-linecap="round" stroke-linejoin="round"/>
<path d="M18.3182 17.8176C22.2272 17.2205 25 15.7382 25 13.9995C25 11.7338 20.2995 9.89746 14.5 9.89746H13.3334" stroke="#CA59FF" stroke-width="1.32857" stroke-linecap="round" stroke-linejoin="round"/>
<path d="M10.6824 10.182C6.77343 10.7791 4.00061 12.2614 4.00061 14.0001C4.00061 16.2658 8.70111 18.1021 14.5006 18.1021H15.6731" stroke="#CA59FF" stroke-width="1.32857" stroke-linecap="round" stroke-linejoin="round"/>
<path d="M14.5006 24.5C16.7663 24.5 18.6026 19.7995 18.6026 14V12.8275" stroke="#CA59FF" stroke-width="1.32857" stroke-linecap="round" stroke-linejoin="round"/>
<path d="M14.501 3.49985C12.2354 3.49985 10.399 8.20035 10.399 13.9998V15.1665" stroke="#CA59FF" stroke-width="1.32857" stroke-linecap="round" stroke-linejoin="round"/>
<path d="M14.5006 3.49985C16.2394 3.49985 17.7217 6.27268 18.3188 10.1817" stroke="#CA59FF" stroke-width="1.32857" stroke-linecap="round" stroke-linejoin="round"/>
<path d="M14.5009 24.4996C12.7621 24.4996 11.2798 21.7268 10.6827 17.8177" stroke="#CA59FF" stroke-width="1.32857" stroke-linecap="round" stroke-linejoin="round"/>
</g>
<defs>
<clipPath id="clip0_4_692">
<rect width="28" height="28" fill="white" transform="translate(0.5)"/>
</clipPath>
</defs>
</svg>
