<svg width="28" height="28" viewBox="0 0 28 28" fill="none" xmlns="http://www.w3.org/2000/svg">
<g clip-path="url(#clip0_4_724)">
<path d="M14 3.5C16.0767 3.5 18.1068 4.11581 19.8335 5.26957C21.5602 6.42332 22.906 8.0632 23.7007 9.98182C24.4955 11.9004 24.7034 14.0116 24.2982 16.0484C23.8931 18.0852 22.8931 19.9562 21.4246 21.4246C19.9562 22.8931 18.0852 23.8931 16.0484 24.2982C14.0116 24.7034 11.9004 24.4955 9.98182 23.7007C8.0632 22.906 6.42332 21.5602 5.26957 19.8335C4.11581 18.1068 3.5 16.0767 3.5 14C3.5 11.2152 4.60625 8.54451 6.57538 6.57538C8.54451 4.60625 11.2152 3.5 14 3.5Z" stroke="#2AFFFF" stroke-width="1.5" stroke-linecap="round" stroke-linejoin="round"/>
<path d="M16.975 18.4135L13.4948 24.5" stroke="#2AFFFF" stroke-width="1.5" stroke-linecap="round" stroke-linejoin="round"/>
<path d="M5.16833 8.33L8.67884 14.35" stroke="#2AFFFF" stroke-width="1.5" stroke-linecap="round" stroke-linejoin="round"/>
<path d="M9.87 18.725C11.1587 18.725 12.2033 17.6803 12.2033 16.3917C12.2033 15.103 11.1587 14.0583 9.87 14.0583C8.58134 14.0583 7.53667 15.103 7.53667 16.3917C7.53667 17.6803 8.58134 18.725 9.87 18.725Z" stroke="#2AFFFF" stroke-width="1.5" stroke-linecap="round" stroke-linejoin="round"/>
<path d="M18.1347 18.725C19.4233 18.725 20.468 17.6803 20.468 16.3917C20.468 15.103 19.4233 14.0583 18.1347 14.0583C16.846 14.0583 15.8013 15.103 15.8013 16.3917C15.8013 17.6803 16.846 18.725 18.1347 18.725Z" stroke="#2AFFFF" stroke-width="1.5" stroke-linecap="round" stroke-linejoin="round"/>
<path d="M14 11.5617C15.2887 11.5617 16.3333 10.517 16.3333 9.22834C16.3333 7.93967 15.2887 6.895 14 6.895C12.7113 6.895 11.6667 7.93967 11.6667 9.22834C11.6667 10.517 12.7113 11.5617 14 11.5617Z" stroke="#2AFFFF" stroke-width="1.5" stroke-linecap="round" stroke-linejoin="round"/>
<path d="M16.3333 9.22833H23.3567" stroke="#2AFFFF" stroke-width="1.5" stroke-linecap="round" stroke-linejoin="round"/>
</g>
<defs>
<clipPath id="clip0_4_724">
<rect width="28" height="28" fill="white"/>
</clipPath>
</defs>
</svg>
